<svg width="22" height="22" viewBox="0 0 22 22" fill="none" xmlns="http://www.w3.org/2000/svg">
<path d="M16.5 17.2883H15.8033C15.07 17.2883 14.3733 17.5725 13.86 18.0858L12.2925 19.6351C11.5775 20.3409 10.4133 20.3409 9.69834 19.6351L8.13083 18.0858C7.6175 17.5725 6.91167 17.2883 6.1875 17.2883H5.5C3.97833 17.2883 2.75 16.0692 2.75 14.5659V4.565C2.75 3.06167 3.97833 1.84253 5.5 1.84253H16.5C18.0217 1.84253 19.25 3.06167 19.25 4.565V14.5659C19.25 16.06 18.0217 17.2883 16.5 17.2883Z" stroke="white" stroke-width="2" stroke-miterlimit="10" stroke-linecap="round" stroke-linejoin="round"/>
<path d="M6.41663 8.39688C6.41663 7.54438 7.11329 6.84766 7.96579 6.84766C8.81829 6.84766 9.51496 7.54438 9.51496 8.39688C9.51496 10.1202 7.06745 10.3035 6.52662 11.9444C6.41662 12.2835 6.70079 12.6227 7.05829 12.6227H9.51496" stroke="white" stroke-width="2" stroke-linecap="round" stroke-linejoin="round"/>
<path d="M14.7032 12.6132V7.37908C14.7032 7.14075 14.5474 6.92986 14.3182 6.86569C14.0891 6.80153 13.8416 6.89319 13.7132 7.09486C13.0532 8.15819 12.3382 9.36821 11.7149 10.4315C11.6141 10.6057 11.6141 10.8349 11.7149 11.009C11.8157 11.1832 12.0082 11.2932 12.2191 11.2932H15.5832" stroke="white" stroke-width="2" stroke-linecap="round" stroke-linejoin="round"/>
</svg>
