<svg width="25" height="24" viewBox="0 0 25 24" fill="none" xmlns="http://www.w3.org/2000/svg">
<path d="M2.5 12.6101H19.5" stroke="white" stroke-width="2" stroke-miterlimit="10" stroke-linecap="round" stroke-linejoin="round"/>
<path d="M19.5 10.28V17.43C19.47 20.28 18.69 21 15.72 21H6.28003C3.26003 21 2.5 20.2501 2.5 17.2701V10.28C2.5 7.58005 3.13 6.71005 5.5 6.57005C5.74 6.56005 6.00003 6.55005 6.28003 6.55005H15.72C18.74 6.55005 19.5 7.30005 19.5 10.28Z" stroke="white" stroke-width="2" stroke-linecap="round" stroke-linejoin="round"/>
<path d="M22.5 6.73V13.72C22.5 16.42 21.87 17.29 19.5 17.43V10.28C19.5 7.3 18.74 6.55 15.72 6.55H6.28003C6.00003 6.55 5.74 6.56 5.5 6.57C5.53 3.72 6.31003 3 9.28003 3H18.72C21.74 3 22.5 3.75 22.5 6.73Z" stroke="white" stroke-width="2" stroke-linecap="round" stroke-linejoin="round"/>
<path d="M5.75 17.8101H7.46997" stroke="white" stroke-width="2" stroke-miterlimit="10" stroke-linecap="round" stroke-linejoin="round"/>
<path d="M9.60999 17.8101H13.05" stroke="white" stroke-width="2" stroke-miterlimit="10" stroke-linecap="round" stroke-linejoin="round"/>
</svg>
