<svg width="22" height="22" viewBox="0 0 22 22" fill="none" xmlns="http://www.w3.org/2000/svg">
<path d="M16.5 17.2883H15.8033C15.07 17.2883 14.3733 17.5725 13.86 18.0858L12.2925 19.635C11.5775 20.3408 10.4133 20.3408 9.69832 19.635L8.13083 18.0858C7.6175 17.5725 6.91167 17.2883 6.1875 17.2883H5.5C3.97833 17.2883 2.75 16.0692 2.75 14.5659V4.565C2.75 3.06167 3.97833 1.84253 5.5 1.84253H16.5C18.0217 1.84253 19.25 3.06167 19.25 4.565V14.5659C19.25 16.06 18.0217 17.2883 16.5 17.2883Z" stroke="white" stroke-width="2" stroke-miterlimit="10" stroke-linecap="round" stroke-linejoin="round"/>
<path d="M11.2567 13.7134C11.1192 13.7593 10.89 13.7593 10.7433 13.7134C9.55167 13.3009 6.875 11.6051 6.875 8.71759C6.875 7.44342 7.90167 6.41675 9.16667 6.41675C9.91833 6.41675 10.5783 6.77425 11 7.33341C11.4217 6.77425 12.0817 6.41675 12.8333 6.41675C14.0983 6.41675 15.125 7.44342 15.125 8.71759C15.1158 11.6051 12.4483 13.3009 11.2567 13.7134Z" stroke="white" stroke-width="2" stroke-linecap="round" stroke-linejoin="round"/>
</svg>
