<svg width="48" height="48" viewBox="0 0 48 48" fill="none" xmlns="http://www.w3.org/2000/svg">
<rect width="48" height="48" rx="24" fill="white" fill-opacity="0.1"/>
<path d="M24.0183 15.6675C20.9842 15.6675 18.5183 18.1333 18.5183 21.1675V23.8166C18.5183 24.3758 18.28 25.2283 17.9958 25.705L16.9417 27.4558C16.2908 28.5375 16.74 29.7383 17.9317 30.1416C21.8825 31.4616 26.145 31.4616 30.0958 30.1416C31.205 29.775 31.6908 28.4641 31.0858 27.4558L30.0317 25.705C29.7567 25.2283 29.5183 24.3758 29.5183 23.8166V21.1675C29.5183 18.1425 27.0433 15.6675 24.0183 15.6675Z" stroke="white" stroke-width="2" stroke-miterlimit="10" stroke-linecap="round"/>
<path d="M25.7142 15.9333C25.43 15.8508 25.1367 15.7867 24.8342 15.75C23.9542 15.64 23.1108 15.7042 22.3225 15.9333C22.5883 15.255 23.2483 14.7783 24.0183 14.7783C24.7883 14.7783 25.4483 15.255 25.7142 15.9333Z" stroke="white" stroke-width="2" stroke-miterlimit="10" stroke-linecap="round" stroke-linejoin="round"/>
<path d="M26.7683 30.4717C26.7683 31.9842 25.5308 33.2217 24.0183 33.2217C23.2667 33.2217 22.57 32.91 22.075 32.415C21.58 31.92 21.2683 31.2233 21.2683 30.4717" stroke="white" stroke-width="2" stroke-miterlimit="10"/>
</svg>
