<svg width="40" height="38" viewBox="0 0 40 38" fill="none" xmlns="http://www.w3.org/2000/svg">
<g filter="url(#filter0_i_70_1947)">
<path d="M0 15C0 12.2386 2.23858 10 5 10H35C37.7614 10 40 12.2386 40 15V24C40 31.732 33.732 38 26 38H14C6.26801 38 0 31.732 0 24V15Z" fill="#5236FF"/>
</g>
<g filter="url(#filter1_i_70_1947)">
<path d="M4 8C4 3.58172 7.58172 0 12 0H28C32.4183 0 36 3.58172 36 8V20C36 26.6274 30.6274 32 24 32H16C9.37258 32 4 26.6274 4 20V8Z" fill="#5236FF"/>
</g>
<defs>
<filter id="filter0_i_70_1947" x="0" y="10" width="40" height="32" filterUnits="userSpaceOnUse" color-interpolation-filters="sRGB">
<feFlood flood-opacity="0" result="BackgroundImageFix"/>
<feBlend mode="normal" in="SourceGraphic" in2="BackgroundImageFix" result="shape"/>
<feColorMatrix in="SourceAlpha" type="matrix" values="0 0 0 0 0 0 0 0 0 0 0 0 0 0 0 0 0 0 127 0" result="hardAlpha"/>
<feOffset dy="4"/>
<feGaussianBlur stdDeviation="2.2"/>
<feComposite in2="hardAlpha" operator="arithmetic" k2="-1" k3="1"/>
<feColorMatrix type="matrix" values="0 0 0 0 0 0 0 0 0 0 0 0 0 0 0 0 0 0 0.25 0"/>
<feBlend mode="normal" in2="shape" result="effect1_innerShadow_70_1947"/>
</filter>
<filter id="filter1_i_70_1947" x="4" y="-3.9" width="32" height="35.9" filterUnits="userSpaceOnUse" color-interpolation-filters="sRGB">
<feFlood flood-opacity="0" result="BackgroundImageFix"/>
<feBlend mode="normal" in="SourceGraphic" in2="BackgroundImageFix" result="shape"/>
<feColorMatrix in="SourceAlpha" type="matrix" values="0 0 0 0 0 0 0 0 0 0 0 0 0 0 0 0 0 0 127 0" result="hardAlpha"/>
<feOffset dy="-4"/>
<feGaussianBlur stdDeviation="1.95"/>
<feComposite in2="hardAlpha" operator="arithmetic" k2="-1" k3="1"/>
<feColorMatrix type="matrix" values="0 0 0 0 0 0 0 0 0 0 0 0 0 0 0 0 0 0 0.15 0"/>
<feBlend mode="normal" in2="shape" result="effect1_innerShadow_70_1947"/>
</filter>
</defs>
</svg>
