<svg width="22" height="22" viewBox="0 0 22 22" fill="none" xmlns="http://www.w3.org/2000/svg">
<path d="M19.3233 7.86495V14.1349C19.3233 15.1616 18.7733 16.115 17.8841 16.6375L12.4391 19.7816C11.55 20.2949 10.45 20.2949 9.55165 19.7816L4.10665 16.6375C3.21748 16.1241 2.66748 15.1708 2.66748 14.1349V7.86495C2.66748 6.83828 3.21748 5.88491 4.10665 5.36241L9.55165 2.21825C10.4408 1.70492 11.5408 1.70492 12.4391 2.21825L17.8841 5.36241C18.7733 5.88491 19.3233 6.82912 19.3233 7.86495Z" stroke="white" stroke-width="2" stroke-linecap="round" stroke-linejoin="round"/>
<path d="M11.0001 10.0834C12.1797 10.0834 13.1359 9.12715 13.1359 7.94756C13.1359 6.76797 12.1797 5.81177 11.0001 5.81177C9.8205 5.81177 8.86426 6.76797 8.86426 7.94756C8.86426 9.12715 9.8205 10.0834 11.0001 10.0834Z" stroke="white" stroke-width="2" stroke-linecap="round" stroke-linejoin="round"/>
<path d="M14.6667 15.2717C14.6667 13.6217 13.0259 12.2834 11 12.2834C8.97421 12.2834 7.33337 13.6217 7.33337 15.2717" stroke="white" stroke-width="2" stroke-linecap="round" stroke-linejoin="round"/>
</svg>
