<svg width="188" height="55" viewBox="0 0 188 55" fill="none" xmlns="http://www.w3.org/2000/svg">
<path d="M30.2839 44.1534C30.3333 39.1052 29.0534 35 27.4254 34.9841C25.7973 34.9682 24.4375 39.0477 24.3882 44.0958C24.3388 49.144 25.6187 53.2493 27.2467 53.2652C28.8748 53.2811 30.2346 49.2017 30.2839 44.1534Z" fill="white"/>
<path d="M20.8416 43.007C23.6127 38.7869 24.7557 34.6415 23.3947 33.7478C22.0337 32.8542 18.6841 35.5507 15.9132 39.7708C13.1422 43.9908 11.9992 48.1362 13.3601 49.0299C14.7211 49.9235 18.0706 47.227 20.8416 43.007Z" fill="white"/>
<path d="M13.5071 36.9523C18.1198 34.9006 21.3227 32.0314 20.6609 30.5437C19.9993 29.0561 15.7236 29.5135 11.1108 31.5653C6.49814 33.617 3.29524 36.4863 3.95694 37.9739C4.61864 39.4615 8.89438 39.0042 13.5071 36.9523Z" fill="white"/>
<path d="M20.1074 26.372C20.3551 24.7628 16.5109 22.8357 11.5213 22.0676C6.53157 21.2996 2.28586 21.9816 2.03818 23.5908C1.79051 25.2 5.63465 27.127 10.6243 27.895C15.614 28.663 19.8597 27.981 20.1074 26.372Z" fill="white"/>
<path d="M21.8989 22.5384C22.9771 21.3185 20.7846 17.6193 17.0018 14.2761C13.219 10.9329 9.27836 9.21165 8.20016 10.4316C7.12196 11.6516 9.31448 15.3508 13.0973 18.694C16.8801 22.0373 20.8207 23.7584 21.8989 22.5384Z" fill="white"/>
<path d="M25.4666 20.2981C27.0332 19.8548 27.1888 15.5574 25.8143 10.6998C24.4397 5.84205 22.0553 2.26349 20.4887 2.7068C18.9221 3.15011 18.7665 7.44741 20.141 12.3052C21.5156 17.1628 23.8999 20.7414 25.4666 20.2981Z" fill="white"/>
<path d="M35.1542 12.4563C36.6243 7.62664 36.5535 3.32709 34.9959 2.85298C33.4383 2.37886 30.9839 5.9097 29.5137 10.7393C28.0437 15.569 28.1145 19.8685 29.6721 20.3426C31.2297 20.8167 33.6842 17.286 35.1542 12.4563Z" fill="white"/>
<path d="M42.0766 18.9822C45.924 15.7135 48.1885 12.0579 47.1343 10.8171C46.0801 9.57631 42.1066 11.2202 38.2592 14.4888C34.4118 17.7574 32.1474 21.413 33.2016 22.6538C34.2557 23.8946 38.2292 22.2508 42.0766 18.9822Z" fill="white"/>
<path d="M44.3654 28.2171C49.3693 27.5476 53.2507 25.6967 53.0348 24.0829C52.8189 22.4692 48.5874 21.7037 43.5835 22.3731C38.5798 23.0425 34.6983 24.8934 34.9142 26.5072C35.1302 28.1209 39.3615 28.8865 44.3654 28.2171Z" fill="white"/>
<path d="M50.8204 38.4352C51.5113 36.9609 48.3656 34.0291 43.7943 31.8868C39.223 29.7444 34.9571 29.2029 34.2662 30.6771C33.5753 32.1514 36.7209 35.0832 41.2923 37.2256C45.8636 39.3679 50.1295 39.9095 50.8204 38.4352Z" fill="white"/>
<path d="M41.2047 49.3129C42.583 48.4463 41.522 44.2791 38.8348 40.0053C36.1476 35.7314 32.8518 32.9694 31.4735 33.836C30.0952 34.7026 31.1562 38.8698 33.8434 43.1437C36.5306 47.4175 39.8264 50.1796 41.2047 49.3129Z" fill="white"/>
<path d="M81.6607 24.624C81.6607 25.6813 81.418 26.652 80.9327 27.536C80.4473 28.4027 79.702 29.1047 78.6967 29.642C77.6913 30.1793 76.4433 30.448 74.9527 30.448H72.1967V37H67.7507V18.748H74.9527C76.4087 18.748 77.6393 18.9993 78.6447 19.502C79.65 20.0047 80.404 20.698 80.9067 21.582C81.4093 22.466 81.6607 23.48 81.6607 24.624ZM74.6147 26.912C75.464 26.912 76.0967 26.7127 76.5127 26.314C76.9287 25.9153 77.1367 25.352 77.1367 24.624C77.1367 23.896 76.9287 23.3327 76.5127 22.934C76.0967 22.5353 75.464 22.336 74.6147 22.336H72.1967V26.912H74.6147ZM88.4213 24.91C88.9413 24.1127 89.5913 23.4887 90.3713 23.038C91.1513 22.57 92.0179 22.336 92.9713 22.336V27.042H91.7493C90.6399 27.042 89.8079 27.2847 89.2533 27.77C88.6986 28.238 88.4213 29.07 88.4213 30.266V37H83.9753V22.492H88.4213V24.91ZM108.772 29.512C108.772 29.928 108.746 30.3613 108.694 30.812H98.6324C98.7017 31.7133 98.9877 32.4067 99.4904 32.892C100.01 33.36 100.643 33.594 101.388 33.594C102.498 33.594 103.269 33.126 103.702 32.19H108.434C108.192 33.1433 107.75 34.0013 107.108 34.764C106.484 35.5267 105.696 36.1247 104.742 36.558C103.789 36.9913 102.723 37.208 101.544 37.208C100.123 37.208 98.8577 36.9047 97.7484 36.298C96.639 35.6913 95.7724 34.8247 95.1484 33.698C94.5244 32.5713 94.2124 31.254 94.2124 29.746C94.2124 28.238 94.5157 26.9207 95.1224 25.794C95.7464 24.6673 96.613 23.8007 97.7224 23.194C98.8317 22.5873 100.106 22.284 101.544 22.284C102.948 22.284 104.196 22.5787 105.288 23.168C106.38 23.7573 107.23 24.598 107.836 25.69C108.46 26.782 108.772 28.056 108.772 29.512ZM104.222 28.342C104.222 27.5793 103.962 26.9727 103.442 26.522C102.922 26.0713 102.272 25.846 101.492 25.846C100.747 25.846 100.114 26.0627 99.5944 26.496C99.0917 26.9293 98.7797 27.5447 98.6584 28.342H104.222ZM129.63 22.336C131.433 22.336 132.863 22.882 133.92 23.974C134.995 25.066 135.532 26.5827 135.532 28.524V37H131.112V29.122C131.112 28.186 130.861 27.4667 130.358 26.964C129.873 26.444 129.197 26.184 128.33 26.184C127.463 26.184 126.779 26.444 126.276 26.964C125.791 27.4667 125.548 28.186 125.548 29.122V37H121.128V29.122C121.128 28.186 120.877 27.4667 120.374 26.964C119.889 26.444 119.213 26.184 118.346 26.184C117.479 26.184 116.795 26.444 116.292 26.964C115.807 27.4667 115.564 28.186 115.564 29.122V37H111.118V22.492H115.564V24.312C116.015 23.7053 116.604 23.2287 117.332 22.882C118.06 22.518 118.883 22.336 119.802 22.336C120.894 22.336 121.865 22.57 122.714 23.038C123.581 23.506 124.257 24.1733 124.742 25.04C125.245 24.2427 125.929 23.5927 126.796 23.09C127.663 22.5873 128.607 22.336 129.63 22.336ZM140.877 20.984C140.097 20.984 139.456 20.7587 138.953 20.308C138.468 19.84 138.225 19.268 138.225 18.592C138.225 17.8987 138.468 17.3267 138.953 16.876C139.456 16.408 140.097 16.174 140.877 16.174C141.64 16.174 142.264 16.408 142.749 16.876C143.252 17.3267 143.503 17.8987 143.503 18.592C143.503 19.268 143.252 19.84 142.749 20.308C142.264 20.7587 141.64 20.984 140.877 20.984ZM143.087 22.492V37H138.641V22.492H143.087ZM159.985 29.512C159.985 29.928 159.959 30.3613 159.907 30.812H149.845C149.915 31.7133 150.201 32.4067 150.703 32.892C151.223 33.36 151.856 33.594 152.601 33.594C153.711 33.594 154.482 33.126 154.915 32.19H159.647C159.405 33.1433 158.963 34.0013 158.321 34.764C157.697 35.5267 156.909 36.1247 155.955 36.558C155.002 36.9913 153.936 37.208 152.757 37.208C151.336 37.208 150.071 36.9047 148.961 36.298C147.852 35.6913 146.985 34.8247 146.361 33.698C145.737 32.5713 145.425 31.254 145.425 29.746C145.425 28.238 145.729 26.9207 146.335 25.794C146.959 24.6673 147.826 23.8007 148.935 23.194C150.045 22.5873 151.319 22.284 152.757 22.284C154.161 22.284 155.409 22.5787 156.501 23.168C157.593 23.7573 158.443 24.598 159.049 25.69C159.673 26.782 159.985 28.056 159.985 29.512ZM155.435 28.342C155.435 27.5793 155.175 26.9727 154.655 26.522C154.135 26.0713 153.485 25.846 152.705 25.846C151.96 25.846 151.327 26.0627 150.807 26.496C150.305 26.9293 149.993 27.5447 149.871 28.342H155.435ZM166.777 24.91C167.297 24.1127 167.947 23.4887 168.727 23.038C169.507 22.57 170.373 22.336 171.327 22.336V27.042H170.105C168.995 27.042 168.163 27.2847 167.609 27.77C167.054 28.238 166.777 29.07 166.777 30.266V37H162.331V22.492H166.777V24.91ZM187.128 29.512C187.128 29.928 187.102 30.3613 187.05 30.812H176.988C177.057 31.7133 177.343 32.4067 177.846 32.892C178.366 33.36 178.999 33.594 179.744 33.594C180.853 33.594 181.625 33.126 182.058 32.19H186.79C186.547 33.1433 186.105 34.0013 185.464 34.764C184.84 35.5267 184.051 36.1247 183.098 36.558C182.145 36.9913 181.079 37.208 179.9 37.208C178.479 37.208 177.213 36.9047 176.104 36.298C174.995 35.6913 174.128 34.8247 173.504 33.698C172.88 32.5713 172.568 31.254 172.568 29.746C172.568 28.238 172.871 26.9207 173.478 25.794C174.102 24.6673 174.969 23.8007 176.078 23.194C177.187 22.5873 178.461 22.284 179.9 22.284C181.304 22.284 182.552 22.5787 183.644 23.168C184.736 23.7573 185.585 24.598 186.192 25.69C186.816 26.782 187.128 28.056 187.128 29.512ZM182.578 28.342C182.578 27.5793 182.318 26.9727 181.798 26.522C181.278 26.0713 180.628 25.846 179.848 25.846C179.103 25.846 178.47 26.0627 177.95 26.496C177.447 26.9293 177.135 27.5447 177.014 28.342H182.578Z" fill="white"/>
</svg>
