<svg width="100" height="100" viewBox="0 0 100 100" fill="none" xmlns="http://www.w3.org/2000/svg">
<rect width="100" height="100" rx="50" fill="#D9D9D9"/>
<path d="M36.5426 46H35.0653L39.3381 34.3636H40.7926L45.0653 46H43.5881L40.1108 36.2045H40.0199L36.5426 46ZM37.0881 41.4545H43.0426V42.7045H37.0881V41.4545ZM49.9915 46.1818C49.2642 46.1818 48.6222 45.9981 48.0653 45.6307C47.5085 45.2595 47.0729 44.7367 46.7585 44.0625C46.4441 43.3845 46.2869 42.5833 46.2869 41.6591C46.2869 40.7424 46.4441 39.947 46.7585 39.2727C47.0729 38.5985 47.5104 38.0777 48.071 37.7102C48.6316 37.3428 49.2794 37.1591 50.0142 37.1591C50.5824 37.1591 51.0313 37.2538 51.3608 37.4432C51.6941 37.6288 51.9479 37.8409 52.1222 38.0795C52.3002 38.3144 52.4384 38.5076 52.5369 38.6591H52.6506V34.3636H53.9915V46H52.696V44.6591H52.5369C52.4384 44.8182 52.2983 45.0189 52.1165 45.2614C51.9347 45.5 51.6752 45.714 51.3381 45.9034C51.0009 46.089 50.5521 46.1818 49.9915 46.1818ZM50.1733 44.9773C50.7112 44.9773 51.1657 44.8371 51.5369 44.5568C51.9081 44.2727 52.1903 43.8807 52.3835 43.3807C52.5767 42.8769 52.6733 42.2955 52.6733 41.6364C52.6733 40.9848 52.5786 40.4148 52.3892 39.9261C52.1998 39.4337 51.9195 39.0511 51.5483 38.7784C51.1771 38.5019 50.7188 38.3636 50.1733 38.3636C49.6051 38.3636 49.1316 38.5095 48.7528 38.8011C48.3778 39.089 48.0956 39.4811 47.9062 39.9773C47.7206 40.4697 47.6278 41.0227 47.6278 41.6364C47.6278 42.2576 47.7225 42.822 47.9119 43.3295C48.1051 43.8333 48.3892 44.2348 48.7642 44.5341C49.143 44.8295 49.6127 44.9773 50.1733 44.9773ZM59.929 46.1818C59.2017 46.1818 58.5597 45.9981 58.0028 45.6307C57.446 45.2595 57.0104 44.7367 56.696 44.0625C56.3816 43.3845 56.2244 42.5833 56.2244 41.6591C56.2244 40.7424 56.3816 39.947 56.696 39.2727C57.0104 38.5985 57.4479 38.0777 58.0085 37.7102C58.5691 37.3428 59.2169 37.1591 59.9517 37.1591C60.5199 37.1591 60.9688 37.2538 61.2983 37.4432C61.6316 37.6288 61.8854 37.8409 62.0597 38.0795C62.2377 38.3144 62.3759 38.5076 62.4744 38.6591H62.5881V34.3636H63.929V46H62.6335V44.6591H62.4744C62.3759 44.8182 62.2358 45.0189 62.054 45.2614C61.8722 45.5 61.6127 45.714 61.2756 45.9034C60.9384 46.089 60.4896 46.1818 59.929 46.1818ZM60.1108 44.9773C60.6487 44.9773 61.1032 44.8371 61.4744 44.5568C61.8456 44.2727 62.1278 43.8807 62.321 43.3807C62.5142 42.8769 62.6108 42.2955 62.6108 41.6364C62.6108 40.9848 62.5161 40.4148 62.3267 39.9261C62.1373 39.4337 61.857 39.0511 61.4858 38.7784C61.1146 38.5019 60.6563 38.3636 60.1108 38.3636C59.5426 38.3636 59.0691 38.5095 58.6903 38.8011C58.3153 39.089 58.0331 39.4811 57.8438 39.9773C57.6581 40.4697 57.5653 41.0227 57.5653 41.6364C57.5653 42.2576 57.66 42.822 57.8494 43.3295C58.0426 43.8333 58.3267 44.2348 58.7017 44.5341C59.0805 44.8295 59.5502 44.9773 60.1108 44.9773ZM29.1982 65V53.3636H33.13C34.0429 53.3636 34.7891 53.5284 35.3686 53.858C35.9519 54.1837 36.3838 54.625 36.6641 55.1818C36.9444 55.7386 37.0845 56.3598 37.0845 57.0455C37.0845 57.7311 36.9444 58.3542 36.6641 58.9148C36.3875 59.4754 35.9595 59.9223 35.38 60.2557C34.8004 60.5852 34.058 60.75 33.1527 60.75H30.3345V59.5H33.1072C33.7322 59.5 34.2341 59.392 34.6129 59.1761C34.9917 58.9602 35.2663 58.6686 35.4368 58.3011C35.611 57.9299 35.6982 57.5114 35.6982 57.0455C35.6982 56.5795 35.611 56.1629 35.4368 55.7955C35.2663 55.428 34.9898 55.1402 34.6072 54.9318C34.2247 54.7197 33.7171 54.6136 33.0845 54.6136H30.6072V65H29.1982ZM40.5135 59.75V65H39.1726V53.3636H40.5135V57.6364H40.6271C40.8317 57.1856 41.1385 56.8277 41.5476 56.5625C41.9605 56.2936 42.5097 56.1591 43.1953 56.1591C43.79 56.1591 44.3108 56.2784 44.7578 56.517C45.2048 56.7519 45.5514 57.1136 45.7976 57.6023C46.0476 58.0871 46.1726 58.7045 46.1726 59.4545V65H44.8317V59.5455C44.8317 58.8523 44.6518 58.3163 44.2919 57.9375C43.9358 57.5549 43.4415 57.3636 42.8089 57.3636C42.3696 57.3636 41.9756 57.4564 41.6271 57.642C41.2824 57.8277 41.0097 58.0985 40.8089 58.4545C40.612 58.8106 40.5135 59.2424 40.5135 59.75ZM52.1712 65.1818C51.3833 65.1818 50.692 64.9943 50.0973 64.6193C49.5064 64.2443 49.0443 63.7197 48.7109 63.0455C48.3814 62.3712 48.2166 61.5833 48.2166 60.6818C48.2166 59.7727 48.3814 58.9792 48.7109 58.3011C49.0443 57.6231 49.5064 57.0966 50.0973 56.7216C50.692 56.3466 51.3833 56.1591 52.1712 56.1591C52.959 56.1591 53.6484 56.3466 54.2393 56.7216C54.834 57.0966 55.2962 57.6231 55.6257 58.3011C55.959 58.9792 56.1257 59.7727 56.1257 60.6818C56.1257 61.5833 55.959 62.3712 55.6257 63.0455C55.2962 63.7197 54.834 64.2443 54.2393 64.6193C53.6484 64.9943 52.959 65.1818 52.1712 65.1818ZM52.1712 63.9773C52.7696 63.9773 53.2621 63.8239 53.6484 63.517C54.0348 63.2102 54.3208 62.8068 54.5064 62.3068C54.692 61.8068 54.7848 61.2652 54.7848 60.6818C54.7848 60.0985 54.692 59.5549 54.5064 59.0511C54.3208 58.5473 54.0348 58.1402 53.6484 57.8295C53.2621 57.5189 52.7696 57.3636 52.1712 57.3636C51.5727 57.3636 51.0803 57.5189 50.6939 57.8295C50.3075 58.1402 50.0215 58.5473 49.8359 59.0511C49.6503 59.5549 49.5575 60.0985 49.5575 60.6818C49.5575 61.2652 49.6503 61.8068 49.8359 62.3068C50.0215 62.8068 50.3075 63.2102 50.6939 63.517C51.0803 63.8239 51.5727 63.9773 52.1712 63.9773ZM61.968 56.2727V57.4091H57.4453V56.2727H61.968ZM58.7635 54.1818H60.1044V62.5C60.1044 62.8788 60.1593 63.1629 60.2692 63.3523C60.3828 63.5379 60.5268 63.6629 60.701 63.7273C60.879 63.7879 61.0665 63.8182 61.2635 63.8182C61.4112 63.8182 61.5324 63.8106 61.6271 63.7955C61.7218 63.7765 61.7976 63.7614 61.8544 63.75L62.1271 64.9545C62.0362 64.9886 61.9093 65.0227 61.7464 65.0568C61.5836 65.0947 61.3771 65.1136 61.1271 65.1136C60.7483 65.1136 60.3771 65.0322 60.0135 64.8693C59.6536 64.7064 59.3544 64.4583 59.1158 64.125C58.8809 63.7917 58.7635 63.3712 58.7635 62.8636V54.1818ZM67.4368 65.1818C66.6489 65.1818 65.9576 64.9943 65.3629 64.6193C64.772 64.2443 64.3099 63.7197 63.9766 63.0455C63.647 62.3712 63.4822 61.5833 63.4822 60.6818C63.4822 59.7727 63.647 58.9792 63.9766 58.3011C64.3099 57.6231 64.772 57.0966 65.3629 56.7216C65.9576 56.3466 66.6489 56.1591 67.4368 56.1591C68.2247 56.1591 68.9141 56.3466 69.505 56.7216C70.0997 57.0966 70.5618 57.6231 70.8913 58.3011C71.2247 58.9792 71.3913 59.7727 71.3913 60.6818C71.3913 61.5833 71.2247 62.3712 70.8913 63.0455C70.5618 63.7197 70.0997 64.2443 69.505 64.6193C68.9141 64.9943 68.2247 65.1818 67.4368 65.1818ZM67.4368 63.9773C68.0353 63.9773 68.5277 63.8239 68.9141 63.517C69.3004 63.2102 69.5864 62.8068 69.772 62.3068C69.9576 61.8068 70.0504 61.2652 70.0504 60.6818C70.0504 60.0985 69.9576 59.5549 69.772 59.0511C69.5864 58.5473 69.3004 58.1402 68.9141 57.8295C68.5277 57.5189 68.0353 57.3636 67.4368 57.3636C66.8383 57.3636 66.3459 57.5189 65.9595 57.8295C65.5732 58.1402 65.2872 58.5473 65.1016 59.0511C64.916 59.5549 64.8232 60.0985 64.8232 60.6818C64.8232 61.2652 64.916 61.8068 65.1016 62.3068C65.2872 62.8068 65.5732 63.2102 65.9595 63.517C66.3459 63.8239 66.8383 63.9773 67.4368 63.9773Z" fill="black"/>
</svg>
