<svg width="353" height="210" viewBox="0 0 353 210" fill="none" xmlns="http://www.w3.org/2000/svg">
<g opacity="0.2">
<path fill-rule="evenodd" clip-rule="evenodd" d="M265.064 91.6109C282.867 89.1422 297.18 83.2806 308.489 74.7494C333.604 55.8025 343.749 23.8013 344.5 -12.9746L343.5 -12.995C342.751 23.6456 332.646 55.2719 307.886 73.951C294.734 83.8731 277.405 90.1738 255.064 91.6109C272.867 89.1422 287.18 83.2806 298.489 74.7494C323.604 55.8025 333.749 23.8013 334.5 -12.9746L333.5 -12.995C332.751 23.6456 322.646 55.2719 297.886 73.951C284.734 83.8731 267.405 90.1738 245.064 91.6109C262.867 89.1422 277.18 83.2806 288.489 74.7494C313.604 55.8025 323.749 23.8013 324.5 -12.9746L323.5 -12.995C322.751 23.6456 312.646 55.2719 287.886 73.951C275.613 83.2104 259.701 89.316 239.474 91.2582C239.033 91.2217 238.59 91.1836 238.146 91.144C254.528 88.4487 267.84 82.7825 278.489 74.7494C303.604 55.8025 313.749 23.8013 314.5 -12.9746L313.5 -12.995C312.751 23.6456 302.646 55.2719 277.886 73.951C266.553 82.5012 252.117 88.3622 234.046 90.7391C233.3 90.6585 232.55 90.5736 231.796 90.4846C246.518 87.5817 258.642 82.1774 268.489 74.7494C293.604 55.8025 303.749 23.8013 304.5 -12.9746L303.5 -12.995C302.751 23.6456 292.646 55.2719 267.886 73.951C257.499 81.7875 244.506 87.3649 228.496 90.0715C227.533 89.9441 226.562 89.81 225.586 89.6691C238.614 86.6245 249.5 81.5301 258.489 74.7494C283.604 55.8025 293.749 23.8013 294.5 -12.9746L293.5 -12.995C292.751 23.6456 282.646 55.2719 257.886 73.951C248.451 81.0691 236.866 86.3233 222.823 89.2552C221.693 89.0796 220.553 88.895 219.405 88.7015C230.758 85.5957 240.393 80.8566 248.489 74.7494C273.604 55.8025 283.749 23.8013 284.5 -12.9746L283.5 -12.995C282.751 23.6456 272.646 55.2719 247.886 73.951C239.41 80.3458 229.198 85.2364 217.028 88.2901C209.596 86.971 201.799 85.2798 193.624 83.1957C183.142 80.5237 173.206 79.5792 163.806 80.0989C160.408 79.9145 157.075 79.9182 153.806 80.0989C150.408 79.9145 147.075 79.9182 143.806 80.0989C140.408 79.9145 137.075 79.9182 133.806 80.0989C130.408 79.9145 127.075 79.9182 123.806 80.0989C120.408 79.9145 117.075 79.9182 113.806 80.0989C110.408 79.9145 107.075 79.9182 103.806 80.0989C65.1675 78.0023 34.9536 100.221 12.4736 130.491C-13.709 165.747 -29.4808 212.015 -35.9899 243.873L-35.0101 244.073C-28.5192 212.303 -12.7909 166.188 13.2764 131.087C33.8796 103.344 60.8913 82.5359 94.8835 81.0489C65.1484 85.7646 41.1437 105.351 22.4736 130.491C-3.70904 165.747 -19.4808 212.015 -25.9899 243.873L-25.0101 244.073C-18.5192 212.303 -2.79094 166.188 23.2764 131.087C43.6632 103.635 70.3244 82.9739 103.814 81.1022C103.996 81.1121 104.178 81.1226 104.359 81.1337C74.8663 85.9952 51.0339 105.499 32.4736 130.491C6.29096 165.747 -9.4808 212.015 -15.9899 243.873L-15.0101 244.073C-8.51918 212.303 7.20906 166.188 33.2764 131.087C52.6529 104.996 77.6974 85.0383 108.886 81.5174C109.573 81.5921 110.262 81.6744 110.955 81.7646C83.0263 87.5157 60.3143 106.467 42.4736 130.491C16.291 165.747 0.519199 212.015 -5.98987 243.873L-5.01011 244.073C1.48082 212.303 17.2091 166.188 43.2764 131.087C61.6315 106.371 85.0728 87.1594 114.005 82.2097C114.951 82.3625 115.901 82.5298 116.857 82.7118C90.7959 89.3991 69.4337 107.653 52.4736 130.491C26.291 165.747 10.5192 212.015 4.01013 243.873L4.98989 244.073C11.4808 212.303 27.2091 166.188 53.2764 131.087C70.5984 107.762 92.4502 89.3395 119.172 83.1795C120.278 83.4157 121.39 83.6715 122.509 83.9472C98.4094 91.4646 78.4808 108.936 62.4736 130.491C36.291 165.747 20.5192 212.015 14.0101 243.873L14.9899 244.073C21.4808 212.303 37.2091 166.188 63.2764 131.087C79.5556 109.166 99.8356 91.5754 124.399 84.4237C125.704 84.7526 127 85.0715 128.287 85.3804C106.072 93.5404 87.5365 110.208 72.4736 130.491C46.291 165.747 30.5192 212.015 24.0101 243.873L24.9899 244.073C31.4808 212.303 47.2091 166.188 73.2764 131.087C88.5904 110.466 107.445 93.6766 130.075 85.8046C131.592 86.1607 133.097 86.5027 134.588 86.831C114.006 95.4191 96.6927 111.344 82.4736 130.491C56.291 165.747 40.5192 212.015 34.0101 243.873L34.9899 244.073C41.4808 212.303 57.2091 166.188 83.2764 131.087C97.7348 111.618 115.349 95.5645 136.317 87.2066C156.612 91.5578 174.415 93.321 189.966 92.8514C193.398 92.9502 196.731 92.9491 199.966 92.8514C203.398 92.9502 206.731 92.9491 209.966 92.8514C213.398 92.9502 216.731 92.9491 219.966 92.8514C223.398 92.9502 226.731 92.9491 229.966 92.8514C233.398 92.9502 236.731 92.9491 239.966 92.8514C243.398 92.9502 246.731 92.9491 249.966 92.8514C279.923 93.7134 302.289 86.9705 318.489 74.7494C343.604 55.8025 353.749 23.8013 354.5 -12.9746L353.5 -12.995C352.751 23.6456 342.646 55.2719 317.886 73.951C304.734 83.8731 287.405 90.1738 265.064 91.6109ZM229.705 91.2358C229.31 91.1858 228.914 91.1347 228.517 91.0825C228.393 91.1031 228.27 91.1236 228.146 91.144C228.59 91.1836 229.033 91.2217 229.474 91.2582C229.551 91.2508 229.628 91.2433 229.705 91.2358ZM225.055 90.6022C224.324 90.4957 223.59 90.3853 222.852 90.2712C222.501 90.3438 222.149 90.4149 221.796 90.4846C222.55 90.5736 223.3 90.6585 224.046 90.7391C224.384 90.6947 224.72 90.6491 225.055 90.6022ZM219.979 89.811C219.014 89.6511 218.043 89.4848 217.066 89.3121C216.575 89.4341 216.082 89.5531 215.586 89.6691C216.562 89.81 217.533 89.9441 218.496 90.0715C218.993 89.9874 219.488 89.9006 219.979 89.811ZM214.609 88.8669C207.829 87.608 200.754 86.0454 193.377 84.1647C186.408 82.3882 179.682 81.3827 173.196 81.0703C176.61 81.5887 180.086 82.2938 183.624 83.1957C193.952 85.8287 203.676 87.8344 212.823 89.2552C213.423 89.13 214.018 89.0006 214.609 88.8669ZM163.516 81.1194C163.615 81.1135 163.715 81.1077 163.814 81.1022C170.109 81.4473 176.629 82.4446 183.377 84.1647C192.725 86.5478 201.586 88.4199 209.979 89.811C209.488 89.9006 208.993 89.9874 208.496 90.0715C197.723 88.6471 186.116 86.3802 173.624 83.1957C170.196 82.3219 166.827 81.6329 163.516 81.1194ZM154.359 81.1337C154.178 81.1226 153.996 81.1121 153.814 81.1022C153.715 81.1077 153.615 81.1135 153.516 81.1194C153.675 81.1441 153.834 81.1692 153.994 81.1947C154.116 81.1741 154.238 81.1538 154.359 81.1337ZM157.093 81.7387C157.689 81.6589 158.286 81.5851 158.886 81.5174C163.594 82.0291 168.424 82.9022 173.377 84.1647C184.631 87.0337 195.179 89.1622 205.055 90.6022C204.72 90.6491 204.384 90.6947 204.046 90.7391C191.737 89.4085 178.29 86.9345 163.624 83.1957C161.423 82.6347 159.246 82.1498 157.093 81.7387ZM150.955 81.7646C150.262 81.6744 149.573 81.5921 148.886 81.5174C148.286 81.5851 147.689 81.6589 147.093 81.7387C147.779 81.8697 148.468 82.0082 149.159 82.1542C149.755 82.0183 150.354 81.8884 150.955 81.7646ZM151.501 82.6763C152.331 82.5089 153.165 82.3533 154.005 82.2097C157.078 82.7063 160.202 83.3555 163.377 84.1647C176.417 87.4888 188.508 89.8189 199.705 91.2358L199.474 91.2582C185.718 90.1179 170.476 87.4918 153.624 83.1957C152.913 83.0147 152.206 82.8416 151.501 82.6763ZM146.857 82.7118C145.901 82.5298 144.951 82.3625 144.005 82.2097C143.165 82.3533 142.331 82.5089 141.501 82.6763C142.206 82.8416 142.913 83.0147 143.624 83.1957C143.875 83.2598 144.126 83.3235 144.377 83.3869C145.199 83.1502 146.025 82.9251 146.857 82.7118ZM146.351 83.8798C147.285 83.6312 148.225 83.3976 149.172 83.1795C150.563 83.4767 151.965 83.8049 153.377 84.1647C166.774 87.5801 179.171 89.946 190.625 91.3504C177.311 90.3208 162.591 87.8873 146.351 83.8798ZM142.509 83.9472C141.39 83.6715 140.278 83.4157 139.172 83.1795C138.225 83.3976 137.285 83.6312 136.351 83.8798C137.582 84.1837 138.805 84.4785 140.019 84.7643C140.844 84.4801 141.674 84.2077 142.509 83.9472ZM141.882 85.1975C142.716 84.9274 143.555 84.6694 144.399 84.4237C157.405 87.7 169.463 89.9818 180.625 91.3504C168.839 90.439 155.951 88.4273 141.882 85.1975ZM138.287 85.3804C137 85.0715 135.704 84.7526 134.399 84.4237C133.555 84.6694 132.716 84.9274 131.882 85.1975C133.344 85.5331 134.792 85.8555 136.229 86.1648C136.911 85.8953 137.597 85.6337 138.287 85.3804ZM138.024 86.5461C138.704 86.2908 139.387 86.0436 140.075 85.8046C150.932 88.3513 161.104 90.183 170.625 91.3504C160.576 90.5733 149.725 88.9962 138.024 86.5461ZM218.517 91.0825C218.914 91.1347 219.31 91.1858 219.705 91.2358L219.474 91.2582C219.033 91.2217 218.59 91.1836 218.146 91.144C218.27 91.1236 218.393 91.1031 218.517 91.0825ZM212.852 90.2712C213.59 90.3853 214.324 90.4957 215.055 90.6022C214.72 90.6491 214.384 90.6947 214.046 90.7391C213.3 90.6585 212.55 90.5736 211.796 90.4846C212.149 90.4149 212.501 90.3438 212.852 90.2712ZM144.091 81.1178C144.181 81.1229 144.27 81.1282 144.359 81.1337C144.238 81.1538 144.116 81.1741 143.994 81.1947C143.834 81.1692 143.675 81.1441 143.516 81.1194C143.615 81.1135 143.715 81.1077 143.814 81.1022C143.907 81.1072 143.999 81.1124 144.091 81.1178ZM138.886 81.5174C139.573 81.5921 140.262 81.6744 140.955 81.7646C140.354 81.8884 139.755 82.0183 139.159 82.1542C138.468 82.0082 137.779 81.8697 137.093 81.7387C137.689 81.6589 138.286 81.5851 138.886 81.5174ZM134.005 82.2097C134.951 82.3625 135.901 82.5298 136.857 82.7118C136.025 82.9251 135.199 83.1502 134.377 83.3869C134.126 83.3235 133.875 83.2598 133.624 83.1957C132.913 83.0147 132.206 82.8416 131.501 82.6763C132.331 82.5089 133.165 82.3533 134.005 82.2097ZM129.172 83.1795C130.278 83.4157 131.39 83.6715 132.509 83.9472C131.674 84.2077 130.844 84.4801 130.019 84.7643C128.805 84.4785 127.582 84.1837 126.351 83.8798C127.285 83.6312 128.225 83.3976 129.172 83.1795ZM209.705 91.2358C209.31 91.1858 208.914 91.1347 208.517 91.0825C208.393 91.1031 208.27 91.1236 208.146 91.144C208.59 91.1836 209.033 91.2217 209.474 91.2582L209.705 91.2358ZM134.359 81.1337C134.178 81.1226 133.996 81.1121 133.814 81.1022C133.715 81.1077 133.615 81.1135 133.516 81.1194C133.675 81.1441 133.834 81.1692 133.994 81.1947L134.137 81.1707L134.359 81.1337ZM130.955 81.7646C130.262 81.6744 129.573 81.5921 128.886 81.5174C128.286 81.5851 127.689 81.6589 127.093 81.7387C127.779 81.8697 128.468 82.0082 129.159 82.1542C129.755 82.0183 130.354 81.8884 130.955 81.7646ZM126.857 82.7118C125.901 82.5298 124.951 82.3625 124.005 82.2097C123.165 82.3533 122.331 82.5089 121.501 82.6763C122.206 82.8416 122.913 83.0147 123.624 83.1957C123.875 83.2598 124.126 83.3235 124.377 83.3869C125.199 83.1502 126.025 82.9251 126.857 82.7118ZM123.814 81.1022C123.996 81.1121 124.178 81.1226 124.359 81.1337C124.238 81.1538 124.116 81.1741 123.994 81.1947L123.781 81.161C123.724 81.1519 123.666 81.1428 123.609 81.1339C123.578 81.129 123.547 81.1242 123.516 81.1194C123.615 81.1135 123.715 81.1077 123.814 81.1022ZM118.886 81.5174C119.573 81.5921 120.262 81.6744 120.955 81.7646C120.354 81.8884 119.755 82.0183 119.159 82.1542C118.468 82.0082 117.779 81.8697 117.093 81.7387C117.689 81.6589 118.286 81.5851 118.886 81.5174ZM114.359 81.1337C114.178 81.1226 113.996 81.1121 113.814 81.1022C113.715 81.1077 113.615 81.1135 113.516 81.1194C113.675 81.1441 113.834 81.1692 113.994 81.1947C114.116 81.1741 114.238 81.1538 114.359 81.1337Z" fill="white"/>
</g>
</svg>
